<svg xmlns:dc="http://purl.org/dc/elements/1.1/" xmlns:cc="http://creativecommons.org/ns#" xmlns:rdf="http://www.w3.org/1999/02/22-rdf-syntax-ns#" xmlns:svg="http://www.w3.org/2000/svg" xmlns="http://www.w3.org/2000/svg" viewBox="0 0 180 180"><metadata><rdf:RDF><cc:Work><dc:format>image/svg+xml</dc:format><dc:type rdf:resource="http://purl.org/dc/dcmitype/StillImage"/><dc:title>Bottts</dc:title><dc:creator><cc:Agent><dc:title>Pablo Stanley</dc:title></cc:Agent></dc:creator><dc:source>https://bottts.com/</dc:source><cc:license rdf:resource="https://bottts.com/"/><dc:contributor><cc:Agent><dc:title>Florian Körner</dc:title></cc:Agent></dc:contributor></cc:Work></rdf:RDF></metadata><mask id="avatarsRadiusMask"><rect width="180" height="180" rx="0" ry="0" x="0" y="0" fill="#fff"/></mask><g mask="url(#avatarsRadiusMask)"><g transform="translate(0, 66)"><g opacity="0.9"><path id="Cable" d="M38 12C35.046 23.6966 18.0959 18.6663 14.6313 30.009C11.1668 41.3518 22.6565 50 32.1552 50" stroke="#2A3544" stroke-width="6"/><path id="Cable_2" d="M150 55C158.394 58.4864 170.102 47.4063 166 38.5C161.898 29.5936 150 31.8056 150 19.195" stroke="#2A3544" stroke-width="4"/></g><path fill-rule="evenodd" clip-rule="evenodd" d="M138 6C136.895 6 136 6.89543 136 8V22C136 23.1046 136.895 24 138 24H157C158.105 24 159 23.1046 159 22V8C159 6.89543 158.105 6 157 6H138ZM21 37C21 35.8954 21.8954 35 23 35H35C36.1046 35 37 35.8954 37 37V55C37 56.1046 36.1046 57 35 57H23C21.8954 57 21 56.1046 21 55V37ZM136 44C136 42.8954 136.895 42 138 42H157C158.105 42 159 42.8954 159 44V62C159 63.1046 158.105 64 157 64H138C136.895 64 136 63.1046 136 62V44Z" fill="#273951"/><mask id="sidesCables01Mask0" mask-type="alpha" maskUnits="userSpaceOnUse" x="21" y="6" width="138" height="58"><path fill-rule="evenodd" clip-rule="evenodd" d="M138 6C136.895 6 136 6.89543 136 8V22C136 23.1046 136.895 24 138 24H157C158.105 24 159 23.1046 159 22V8C159 6.89543 158.105 6 157 6H138ZM21 37C21 35.8954 21.8954 35 23 35H35C36.1046 35 37 35.8954 37 37V55C37 56.1046 36.1046 57 35 57H23C21.8954 57 21 56.1046 21 55V37ZM136 44C136 42.8954 136.895 42 138 42H157C158.105 42 159 42.8954 159 44V62C159 63.1046 158.105 64 157 64H138C136.895 64 136 63.1046 136 62V44Z" fill="white"/></mask><g mask="url(#sidesCables01Mask0)"><rect width="180" height="76" fill="#EF5350"/></g></g><g transform="translate(41, 0)"><path fill-rule="evenodd" clip-rule="evenodd" d="M23 22C20.2386 22 18 24.2386 18 27V40H12C10.8954 40 10 40.8954 10 42V52H18H34H42H58H66H82H90V42C90 40.8954 89.1046 40 88 40H82V27C82 24.2386 79.7614 22 77 22H71C68.2386 22 66 24.2386 66 27V40H58V27C58 24.2386 55.7614 22 53 22H47C44.2386 22 42 24.2386 42 27V40H34V27C34 24.2386 31.7614 22 29 22H23Z" fill="#E1E6E8"/><mask id="topLightsMask0" mask-type="alpha" maskUnits="userSpaceOnUse" x="10" y="22" width="80" height="30"><path fill-rule="evenodd" clip-rule="evenodd" d="M23 22C20.2386 22 18 24.2386 18 27V40H12C10.8954 40 10 40.8954 10 42V52H18H34H42H58H66H82H90V42C90 40.8954 89.1046 40 88 40H82V27C82 24.2386 79.7614 22 77 22H71C68.2386 22 66 24.2386 66 27V40H58V27C58 24.2386 55.7614 22 53 22H47C44.2386 22 42 24.2386 42 27V40H34V27C34 24.2386 31.7614 22 29 22H23Z" fill="white"/></mask><g mask="url(#topLightsMask0)"><rect width="100" height="52" fill="#EF5350"/><rect width="100" height="40" fill="white" fill-opacity="0.6"/><rect x="24" y="28" width="4" height="8" rx="2" fill="white" fill-opacity="0.6"/><rect x="48" y="28" width="4" height="8" rx="2" fill="white" fill-opacity="0.6"/><rect x="72" y="28" width="4" height="8" rx="2" fill="white" fill-opacity="0.6"/></g></g><g transform="translate(25, 44)"><rect width="130" height="120" rx="18" fill="#0076DE"/><mask id="faceSquare01Mask0" mask-type="alpha" maskUnits="userSpaceOnUse" x="0" y="0" width="130" height="120"><rect width="130" height="120" rx="18" fill="white"/></mask><g mask="url(#faceSquare01Mask0)"><rect x="-2" y="-2" width="134" height="124" fill="#E53935"/></g></g><g transform="translate(52, 124)"><rect x="4" y="5" width="68" height="22" rx="5" fill="black" fill-opacity="0.2"/><rect x="8" y="9" width="60" height="14" rx="2" fill="white"/><rect x="18" y="9" width="4" height="14" fill="black" fill-opacity="0.1"/><rect x="42" y="9" width="4" height="14" fill="black" fill-opacity="0.1"/><rect x="30" y="9" width="4" height="14" fill="black" fill-opacity="0.1"/><rect x="54" y="9" width="4" height="14" fill="black" fill-opacity="0.1"/></g><g transform="translate(38, 76)"><path d="M18 19L30 17" stroke="black" stroke-width="4" stroke-linecap="round" stroke-linejoin="round"/><path d="M20 31C20 27.686 22.9098 25 27 25C30.0902 25 33 27.686 33 31" stroke="black" stroke-width="4" stroke-linecap="round" stroke-linejoin="round"/><path d="M86 20L74 17" stroke="black" stroke-width="4" stroke-linecap="round" stroke-linejoin="round"/><path d="M84 31C84 27.686 81.0902 25 78 25C73.9098 25 71 27.686 71 31" stroke="black" stroke-width="4" stroke-linecap="round" stroke-linejoin="round"/></g></g></svg>